#N canvas 576 103 574 627 10;
#X declare -lib oscx;
#X msg 29 218 close;
#X obj 290 32 import oscx;
#X obj 291 65 dumpOSC 8000;
#X obj 291 93 OSCroute /solenoid;
#X floatatom 291 116 5 0 0 0 - - -;
#X obj 14 435 tgl 15 0 empty empty empty 17 7 0 10 -262144 -1 -1 0
1;
#X msg 14 457 send /solenoid \$1;
#X msg 291 138 digital 2 \$1;
#X text 221 224 button;
#X text 223 249 led;
#X text 221 279 solenoid;
#X obj 14 369 route digital;
#X obj 14 391 route 9;
#X floatatom 14 414 5 0 0 0 - - -;
#X msg 110 225 pinMode 9 input;
#X msg 110 252 pinMode 6 output;
#X msg 111 279 pinMode 2 output;
#X obj 110 140 loadbang;
#X obj 110 165 delay 100;
#X obj 291 166 s solenoid;
#X obj 16 145 r solenoid;
#X msg 112 305 devices;
#X msg 23 194 open 0;
#X floatatom 14 516 5 0 0 0 - - -;
#X obj 14 489 sendOSC;
#X msg 179 471 disconnect;
#X obj 111 102 bng 15 250 50 0 empty empty empty 17 7 0 10 -262144
-1 -1;
#X obj 14 346 arduino 0;
#X msg 378 136 digital 6 \$1;
#X msg 180 447 connect localhost 8001;
#X text 78 338 once you know which port you arduino is on \, you can
change the argument in the arduino object;
#X text 166 304 list connected devices \, arduino port will be here
;
#X text 328 483 is listening to 8001;
#X text 370 72 is sending to 8000;
#X text 371 58 make sure the other patch;
#X text 329 469 make sure the other patch;
#X text 17 14 On the Arduino;
#X text 17 27 button on pin 9;
#X text 17 39 led on pin 6;
#X text 17 51 solenoid to pin 2;
#X text 328 441 Here \, change localhost;
#X text 328 455 to receiving ip address and;
#X connect 0 0 27 0;
#X connect 2 0 3 0;
#X connect 3 0 4 0;
#X connect 4 0 7 0;
#X connect 4 0 28 0;
#X connect 5 0 6 0;
#X connect 6 0 24 0;
#X connect 7 0 19 0;
#X connect 11 0 12 0;
#X connect 12 0 13 0;
#X connect 13 0 5 0;
#X connect 14 0 27 0;
#X connect 15 0 27 0;
#X connect 16 0 27 0;
#X connect 17 0 18 0;
#X connect 18 0 14 0;
#X connect 18 0 15 0;
#X connect 18 0 16 0;
#X connect 20 0 27 0;
#X connect 21 0 27 0;
#X connect 22 0 27 0;
#X connect 24 0 23 0;
#X connect 25 0 24 0;
#X connect 26 0 18 0;
#X connect 27 0 11 0;
#X connect 28 0 19 0;
#X connect 29 0 24 0;
